<svg id="eecL27vDou61" xmlns="http://www.w3.org/2000/svg" width="320px" xmlns:xlink="http://www.w3.org/1999/xlink" viewBox="0 0 184 184" shape-rendering="geometricPrecision" text-rendering="geometricPrecision"><path d="M39.7,-64.9C53.3,-61,67.3,-54,76.2,-42.6c9,11.3,12.8,27,12.7,42.6c0,15.6-4,31.1-12.7,42.9s-22,19.8-35.5,27.9c-13.5,8-27.1,16.1-40.5,15.8-13.5-.3-26.7-9-40-17.1-13.3-8.2-26.6-15.9-28.6-27.4-1.9-11.4,7.4-26.8,9.5-40.9c2.1-14-2.9-26.9-1.8-40s8.2-26.4,19.3-31.7c11.2-5.2,26.3-2.3,40.4-.6c14.1,1.8,27.2,2.4,40.7,6.2Z" transform="matrix(1.142118 0 0 1.142118 80.432622 84.484714)" fill="var(--first-color)"/></svg>
