<svg viewBox="0 0 200 200" xmlns="http://www.w3.org/2000/svg" width="400" height="400">
  <path fill="var(--first-color)" d="M39.7,-64.9C53.3,-61,67.3,-54,76.2,-42.6C85.2,-31.3,89,-15.6,88.9,0C88.9,15.6,84.9,31.1,76.2,42.9C67.5,54.7,54.2,62.7,40.7,70.8C27.2,78.8,13.6,86.9,0.2,86.6C-13.3,86.3,-26.5,77.6,-39.8,69.5C-53.1,61.3,-66.4,53.6,-68.4,42.1C-70.3,30.7,-61,15.3,-58.9,1.2C-56.8,-12.8,-61.8,-25.7,-60.7,-38.8C-59.6,-51.9,-52.5,-65.2,-41.4,-70.5C-30.2,-75.7,-15.1,-72.8,-1,-71.1C13.1,-69.3,26.2,-68.7,39.7,-64.9Z" transform="translate(100 100)" />
</svg>